<svg width="24" height="24" viewBox="0 0 24 24" fill="none" xmlns="http://www.w3.org/2000/svg">
<path d="M22.5325 12.2475C22.5325 11.5233 22.4683 10.8358 22.3583 10.1666H12V14.3008H17.9308C17.665 15.6575 16.8858 16.8033 15.7308 17.5825V20.3325H19.2692C21.3408 18.4166 22.5325 15.5933 22.5325 12.2475Z" fill="#4285F4"/>
<path d="M12 23.0001C14.97 23.0001 17.4542 22.0101 19.2692 20.3326L15.7308 17.5826C14.7408 18.2426 13.485 18.6459 12 18.6459C9.13083 18.6459 6.70166 16.7117 5.83083 14.0992H2.1825V16.9317C3.98833 20.5251 7.70083 23.0001 12 23.0001Z" fill="#34A853"/>
<path d="M5.83083 14.0992C5.60167 13.4392 5.4825 12.7334 5.4825 12C5.4825 11.2667 5.61083 10.5609 5.83083 9.90086V7.06836H2.1825C1.43083 8.55336 1 10.2217 1 12C1 13.7784 1.43083 15.4467 2.1825 16.9317L5.83083 14.0992Z" fill="#FBBC05"/>
<path d="M12 5.35417C13.6225 5.35417 15.0708 5.91334 16.2167 7.00417L19.3517 3.86917C17.4542 2.09083 14.97 1 12 1C7.70083 1 3.98833 3.475 2.1825 7.06834L5.83083 9.90084C6.70166 7.28834 9.13083 5.35417 12 5.35417Z" fill="#EA4335"/>
</svg>
