<svg width="24" height="24" viewBox="0 0 24 24" xmlns="http://www.w3.org/2000/svg">
<path d="M4.56993 7.43C6.38993 5.17 9.27993 5.03 11.2399 7C11.3699 7.13 11.4999 7.28 11.6199 7.43C11.7599 7.6 11.8799 7.78 11.9899 7.97C12.1099 7.79 12.2299 7.6 12.3599 7.43C12.4799 7.28 12.6099 7.13 12.7399 7C14.6999 5.03 17.5799 5.17 19.4099 7.43C20.1099 8.3 20.5599 9.37 20.7499 10.49C21.0999 8.51 21.2299 6.55 19.9799 5C18.0299 2.59 14.2999 2.4 12.3499 4.81C12.2099 4.98 12.0899 5.16 11.9799 5.34C11.8599 5.16 11.7399 4.98 11.6099 4.81C9.65993 2.4 5.92993 2.59 3.97993 5C2.73993 6.54 2.85993 8.5 3.20993 10.49C3.40993 9.37 3.84993 8.3 4.54993 7.43H4.56993Z" />
<path d="M18.3699 14L11.9999 19L5.62988 14C4.35988 13 3.55988 11.78 3.19988 10.5C2.56988 12.77 3.37988 15.24 5.62988 17L11.9999 22L18.3699 17C20.6199 15.24 21.4199 12.77 20.7999 10.5C20.4499 11.78 19.6399 13 18.3699 14Z" />
</svg>
