<svg width="24" height="24" viewBox="0 0 24 24" xmlns="http://www.w3.org/2000/svg">
<path d="M17.0001 6.99999C18.0001 7.99999 18.6301 9.21999 18.9101 10.5C19.4001 8.22999 18.7701 5.75999 17.0001 3.99999C14.2401 1.23999 9.76012 1.23999 7.00012 3.99999C5.24012 5.75999 4.60012 8.22999 5.09012 10.5C5.37012 9.21999 6.00012 7.99999 7.00012 6.99999C9.76012 4.23999 14.2401 4.23999 17.0001 6.99999Z" />
<path d="M17 14L12 19L7.00002 14C6.00002 13 5.37002 11.78 5.09002 10.5C4.60002 12.77 5.23002 15.24 7.00002 17L12 22L17 17C18.76 15.24 19.4 12.77 18.91 10.5C18.63 11.78 18 13 17 14Z" />
<path d="M12 12.5C13.1046 12.5 14 11.6046 14 10.5C14 9.39543 13.1046 8.5 12 8.5C10.8954 8.5 10 9.39543 10 10.5C10 11.6046 10.8954 12.5 12 12.5Z" />
</svg>
